<?xml version="1.0" encoding="utf-8"?>
<!-- Generator: Adobe Illustrator 15.0.0, SVG Export Plug-In  -->
<!DOCTYPE svg PUBLIC "-//W3C//DTD SVG 1.1//EN" "http://www.w3.org/Graphics/SVG/1.1/DTD/svg11.dtd" [
	<!ENTITY ns_flows "http://ns.adobe.com/Flows/1.0/">
]>
<svg version="1.1"
	 xmlns="http://www.w3.org/2000/svg" xmlns:xlink="http://www.w3.org/1999/xlink" xmlns:a="http://ns.adobe.com/AdobeSVGViewerExtensions/3.0/"
	 x="0px" y="0px" width="64px" height="64px" viewBox="486 2000 64 64" overflow="visible" enable-background="new 486 2000 64 64"
	 xml:space="preserve">
<defs>
</defs>
<rect display="none" fill="#F1F2F2" width="590" height="7500"/>
<rect x="486" y="2000" display="none" fill="#A7A9AC" width="64" height="64"/>
<path fill="none" stroke="#414042" stroke-width="4" stroke-linecap="round" stroke-linejoin="round" stroke-miterlimit="10" d="
	M496,2015c0,0,7-16,24-8c2.355-0.589,10.921-4.92,17,1c4.75,4.625,3.502,9.594,3.502,9.594s4.623,1.406,6.01,6.009
	c0.903,2.998-0.707,6.01-0.707,6.01c2.195,2.388,1.945,15.388-10.43,15.263c0.943,6.245,2.77,14.312,2.77,14.312l-17.32-15.555
	c0,0-9.824,6.367-14.824-2.633c-6.599,2.593-10.721,3.099-14-1c-4-5-1-12-1-12s-4-5-2-9C490.612,2015.775,493,2015,496,2015z"/>
<path fill="none" stroke="#414042" stroke-width="2" stroke-linecap="round" stroke-linejoin="round" stroke-miterlimit="10" d="
	M516,2011c0,0-2,1-4,6"/>
<path fill="none" stroke="#414042" stroke-width="2" stroke-linecap="round" stroke-linejoin="round" stroke-miterlimit="10" d="
	M507,2027c0,0,2,2,2,5s-2,5-2,5"/>
<path fill="none" stroke="#414042" stroke-width="2" stroke-linecap="round" stroke-linejoin="round" stroke-miterlimit="10" d="
	M516,2027c0,0-5-3-7,4"/>
<path fill="none" stroke="#414042" stroke-width="4" stroke-linecap="round" stroke-linejoin="round" stroke-miterlimit="10" d="
	M522,2042.855c0,0,3-3,4-4s3-3,7-1"/>
<path fill="none" stroke="#414042" stroke-width="2" stroke-linecap="round" stroke-linejoin="round" stroke-miterlimit="10" d="
	M536,2018c0,0-7-1-9,4"/>
<path fill="none" stroke="#414042" stroke-width="4" stroke-linecap="round" stroke-linejoin="round" stroke-miterlimit="10" d="
	M495,2015c0,0,5,0,7,3"/>
<path fill="none" stroke="#414042" stroke-width="2" stroke-linecap="round" stroke-linejoin="round" stroke-miterlimit="10" d="
	M526,2016c0,0,1,3,6,2"/>
</svg>
